# xmcd
#
# Track frame offsets: 
#        150
#        18137
#        33409
#        48658
#        59404
#        78880
#        93926
#        113633
#        135881
#        155264
#        171866
#        186842
#        207401
#        228309
#        247068
#        264312
#        284862
#        300582
#        317594
#        336718
#
# Disc length: 4769 seconds
#
# Revision: 0
# Processed by: cddbd v1.5.2PL0 Copyright (c) Steve Scherf et al.
# Submitted via: ExactAudioCopyFreeDBPlugin 1.0
#
DISCID=15129f14
DTITLE=Ministry of Sound - Throwback R&B Disc 1
DYEAR=2015
DGENRE=R&B
TTITLE0=Brandy - Monica - The Boy Is Mine
TTITLE1=Ja Rule - Ashanti - Always On Time
TTITLE2=Sisqo - Thong Song
TTITLE3=The Pussycat Dolls - Busta Rhymes - Don't Cha
TTITLE4=Estelle - American Boy
TTITLE5=Kelis - Milkshake
TTITLE6=Sean Paul - Get Busy
TTITLE7=Missy Elliott - Get Ur Freak On
TTITLE8=The Notorious B.I.G. - Hypnotize
TTITLE9=Joe Budden - Pump It Up
TTITLE10=Lucy Pearl - Don't Mess With My Man
TTITLE11=Mya - Case Of The Ex (Watcha Gonna Do)
TTITLE12=112 - P. Diddy - Peaches and Cream
TTITLE13=Damage - Ghetto Romance
TTITLE14=Cassie - Me and U
TTITLE15=Nelly - City Spud - Ride Wit Me
TTITLE16=City High - What Would You Do?
TTITLE17=Lumidee - Never Leave You (Uh Ooh, Uh Oooh!)
TTITLE18=Wayne Wonder - No Letting Go
TTITLE19=Kevin Lyttle - Turn Me On
EXTD=
EXTT0=
EXTT1=
EXTT2=
EXTT3=
EXTT4=
EXTT5=
EXTT6=
EXTT7=
EXTT8=
EXTT9=
EXTT10=
EXTT11=
EXTT12=
EXTT13=
EXTT14=
EXTT15=
EXTT16=
EXTT17=
EXTT18=
EXTT19=
PLAYORDER=
